Genre:Comedy
Language:English
IMDb:http://www.imdb.com/title/tt1334512/
Source:FLOPPYDiSK/IMAGINE Thanks!

Format : MPEG-4
Format profile : Base Media
Codec ID : isom
File size : 1.20 GiB
Duration : 1h 46mn
Overall bit rate : 1 617 Kbps

Video
ID : 1
Format : AVC
Format/Info : Advanced Video Codec
Format profile : High@L4.1
Format settings, CABAC : Yes
Format settings, ReFrames : 3 frames
Codec ID : avc1
Codec ID/Info : Advanced Video Coding
Duration : 1h 46mn
Bit rate mode : Variable
Bit rate : 1 400 Kbps
Maximum bit rate : 6 068 Kbps
Width : 720 pixels
Height : 360 pixels
Display aspect ratio : 2.000
Frame rate mode : Constant
Frame rate : 25.000 fps
Color space : YUV
Chroma subsampling : 4:2:0
Bit depth : 8 bits
Scan type : Progressive
Bits/(Pixel*Frame) : 0.216
Stream size : 1.04 GiB (87%)
Writing library : x264

Audio
ID : 2
Format : AAC
Format/Info : Advanced Audio Codec
Format version : Version 4
Format profile : LC
Format settings, SBR : No
Codec ID : 40
Duration : 1h 46mn
Bit rate mode : Variable
Bit rate : 210 Kbps
Maximum bit rate : 263 Kbps
Channel(s) : 2 channels
Channel positions : Front: L R
Sampling rate : 22.05 KHz
Stream size : 159 MiB (13%)


Plot:
A drunken playboy stands to lose a wealthy inheritance when he falls for a woman his family doesn't like.


Screens:
 
http://www.pix2links.com/images/71226379278025428817.png 
http://www.pix2links.com/images/98629568411164772315.png 
http://www.pix2links.com/images/33193999627531289423.png 
http://www.pix2links.com/images/48280034922735851110.png


Greets:

INK,CRYS,IMAGINE,LKRG,FXG,3Li,FLAWL3SS,TA,iLLUSiON,ViSiON,DTRG SAFCuk009,LU,TheFalcon007,MYSTiC,PrisM,Noir,WBZ,LAP,Rx,Kingdom,SAFCuk009+Fabreezy,HDLiTE,TWiZTED,ExtraTorrentRG.ELEKTRI4KA,MAGNAT,CM8
And to all the other p2p grps past and present.